<svg width="30" height="30" viewBox="0 0 30 30" fill="none" xmlns="http://www.w3.org/2000/svg">
<g clip-path="url(#clip0_1_218)">
<path d="M28.0027 1.96667C26.9294 0.89335 25.6379 0.357422 24.1267 0.357422H5.84221C4.33107 0.357422 3.03957 0.89335 1.96624 1.96667C0.892923 3.03999 0.356995 4.33149 0.356995 5.84264V24.1272C0.356995 25.6383 0.892923 26.9298 1.96624 28.0031C3.03957 29.0765 4.33107 29.6124 5.84221 29.6124H10.1091C10.3874 29.6124 10.5967 29.6021 10.7373 29.5831C10.9009 29.5503 11.0485 29.4631 11.1561 29.3356C11.2952 29.1892 11.3655 28.9769 11.3655 28.6987L11.3552 27.4028C11.3494 26.5769 11.3465 25.9238 11.3465 25.4406L10.9072 25.5168C10.629 25.568 10.2775 25.59 9.85142 25.5841C9.40729 25.5759 8.96457 25.5314 8.52771 25.4509C8.06266 25.365 7.62487 25.1692 7.25085 24.8798C6.85915 24.5835 6.56699 24.1749 6.41328 23.7084L6.22292 23.2691C6.06248 22.9226 5.86091 22.5966 5.62257 22.2983C5.35021 21.9425 5.07346 21.7023 4.79378 21.5749L4.66199 21.4797C4.5701 21.4139 4.48652 21.3372 4.41307 21.2513C4.34291 21.1716 4.28516 21.0817 4.24174 20.9848C4.20367 20.8955 4.23589 20.8223 4.33692 20.7652C4.43942 20.7066 4.62246 20.6788 4.89042 20.6788L5.27114 20.7373C5.52446 20.7871 5.83928 20.9394 6.21267 21.1927C6.59055 21.4504 6.9062 21.789 7.13664 22.1841C7.42949 22.7039 7.78092 23.1007 8.19385 23.3745C8.60678 23.6469 9.02264 23.7845 9.44142 23.7845C9.86021 23.7845 10.2219 23.7523 10.5279 23.6893C10.8239 23.6282 11.1114 23.5318 11.3845 23.4023C11.4987 22.5531 11.8092 21.8971 12.3173 21.4402C11.6589 21.3757 11.0064 21.2611 10.3654 21.0976C9.73983 20.9257 9.13822 20.6763 8.57457 20.3552C7.98482 20.0341 7.46391 19.6003 7.04146 19.0783C6.63585 18.5702 6.30199 17.904 6.04135 17.0796C5.78217 16.2537 5.65185 15.3005 5.65185 14.2213C5.65185 12.6852 6.15264 11.3776 7.15567 10.297C6.6871 9.14314 6.73103 7.84724 7.28892 6.41371C7.65792 6.29803 8.2041 6.38442 8.92746 6.66996C9.65082 6.95549 10.1809 7.20003 10.5177 7.4021C10.8545 7.6071 11.1239 7.77842 11.3274 7.91753C12.5179 7.58624 13.7481 7.41971 14.9837 7.4226C16.2416 7.4226 17.4599 7.58806 18.6415 7.91753L19.3649 7.46067C19.9213 7.1266 20.5082 6.84615 21.1176 6.6231C21.7912 6.36831 22.3037 6.29949 22.661 6.41371C23.2321 7.84871 23.2819 9.14314 22.8118 10.2985C23.8148 11.3776 24.3171 12.6852 24.3171 14.2227C24.3171 15.3019 24.1868 16.2581 23.9261 17.0883C23.667 17.9201 23.3302 18.5863 22.9172 19.0886C22.4873 19.6038 21.9643 20.0335 21.3754 20.3552C20.7604 20.6978 20.1629 20.9453 19.5845 21.0976C18.9436 21.2616 18.2911 21.3767 17.6326 21.4417C18.2916 22.0127 18.6225 22.9133 18.6225 24.1447V28.6987C18.6225 28.9139 18.6532 29.0882 18.7177 29.2214C18.7473 29.2856 18.7895 29.3432 18.8418 29.3907C18.8942 29.4383 18.9555 29.4748 19.0222 29.4982C19.1628 29.548 19.2858 29.5802 19.3942 29.5919C19.5025 29.6065 19.6577 29.6109 19.8598 29.6109H24.1267C25.6379 29.6109 26.9294 29.075 28.0027 28.0017C29.0746 26.9298 29.612 25.6368 29.612 24.1257V5.84264C29.612 4.33149 29.076 3.03999 28.0027 1.96667Z" fill="url(#paint0_linear_1_218)"/>
</g>
<defs>
<linearGradient id="paint0_linear_1_218" x1="12.5192" y1="23.4893" x2="-10.0167" y2="15.7716" gradientUnits="userSpaceOnUse">
<stop stop-color="#1850E1"/>
<stop offset="1" stop-color="#7EA2FF"/>
<stop offset="1" stop-color="#C5D5FF"/>
</linearGradient>
<clipPath id="clip0_1_218">
<rect width="30" height="30" fill="white"/>
</clipPath>
</defs>
</svg>
