<svg width="30" height="30" viewBox="0 0 30 30" fill="none" xmlns="http://www.w3.org/2000/svg">
<g clip-path="url(#clip0_1_210)">
<path d="M17.7998 15.3595C17.7752 15.897 17.6001 16.4161 17.2914 16.8569C16.982 17.3122 16.5364 17.6579 16.0183 17.8443C15.5057 18.0534 14.9414 18.1006 14.4012 17.9795C13.8585 17.8638 13.3631 17.5877 12.9792 17.187C12.5987 16.7681 12.3489 16.2471 12.2604 15.6882C12.1604 15.1469 12.2284 14.5879 12.4555 14.0864C12.6766 13.5842 13.039 13.1558 13.5028 12.8579C13.9743 12.5661 14.5195 12.411 15.0754 12.4094C15.8079 12.4494 16.4975 12.7657 17.0073 13.2925C17.2708 13.5666 17.4767 13.8907 17.6128 14.2458C17.7489 14.6008 17.8125 14.9795 17.7998 15.3595Z" fill="url(#paint0_linear_1_210)"/>
<path d="M23.0854 8.85988C22.9106 8.42832 22.6509 8.03629 22.3216 7.70705C21.9924 7.37782 21.6004 7.11809 21.1688 6.94331C20.7342 6.77375 20.273 6.68275 19.8066 6.67456H10.3436C9.40749 6.6782 8.51079 7.05167 7.84889 7.71357C7.18698 8.37548 6.81352 9.27217 6.80988 10.2082V19.851C6.81055 20.3163 6.90346 20.7768 7.08323 21.2059C7.26301 21.6351 7.52608 22.0243 7.85723 22.3511C8.51891 23.0076 9.4115 23.3786 10.3436 23.3847H19.8066C20.5037 23.3802 21.1841 23.1713 21.7636 22.784C22.3431 22.3967 22.7963 21.8478 23.0669 21.2055C23.2464 20.7764 23.3393 20.3161 23.3403 19.851V10.2221C23.3369 9.75647 23.2506 9.2952 23.0854 8.85988ZM19.3428 17.2157C19.1172 17.7762 18.7808 18.2855 18.3538 18.713C17.9238 19.1476 17.4155 19.4962 16.8565 19.7466C16.251 20.0006 15.5998 20.1279 14.9432 20.1205C14.2865 20.1131 13.6384 19.9712 13.0387 19.7036C12.0741 19.2693 11.283 18.5243 10.7916 17.5875C10.3002 16.6507 10.1371 15.5763 10.3282 14.5359C10.5128 13.6178 10.9543 12.7711 11.6013 12.0941C12.2616 11.4323 13.1016 10.9788 14.0172 10.7899C14.9328 10.601 15.8838 10.685 16.7521 11.0314C17.6228 11.3846 18.3646 11.9958 18.8775 12.7836C19.3959 13.5433 19.6775 14.4394 19.6868 15.359C19.7083 15.9963 19.5901 16.6291 19.3428 17.2157ZM20.9891 9.81817C21.0036 9.93785 20.9925 10.0592 20.9565 10.1743C20.9206 10.2894 20.8607 10.3955 20.7807 10.4857C20.7007 10.5759 20.6026 10.6481 20.4926 10.6976C20.3827 10.7471 20.2635 10.7726 20.1429 10.7726C20.0224 10.7726 19.9032 10.7471 19.7933 10.6976C19.6833 10.6481 19.5851 10.5759 19.5052 10.4857C19.4252 10.3955 19.3653 10.2894 19.3294 10.1743C19.2934 10.0592 19.2823 9.93785 19.2968 9.81817C19.2788 9.69658 19.2872 9.57253 19.3215 9.45449C19.3557 9.33645 19.415 9.22718 19.4953 9.13412C19.5756 9.04106 19.675 8.9664 19.7868 8.91523C19.8986 8.86405 20.02 8.83756 20.1429 8.83756C20.2659 8.83756 20.3873 8.86405 20.4991 8.91523C20.6108 8.9664 20.7103 9.04106 20.7906 9.13412C20.8709 9.22718 20.9302 9.33645 20.9644 9.45449C20.9987 9.57253 21.0071 9.69658 20.9891 9.81817Z" fill="url(#paint1_linear_1_210)"/>
<path d="M22.4866 0.0268555H7.5134C5.52783 0.0268555 3.62358 0.815621 2.21957 2.21963C0.81556 3.62364 0.0267944 5.52789 0.0267944 7.51346V22.4867C0.0267944 23.4698 0.220441 24.4434 0.596678 25.3517C0.972916 26.26 1.52438 27.0853 2.21957 27.7805C3.62358 29.1845 5.52783 29.9733 7.5134 29.9733H22.4866C23.4698 29.9733 24.4433 29.7796 25.3516 29.4034C26.2599 29.0272 27.0853 28.4757 27.7804 27.7805C28.4756 27.0853 29.0271 26.26 29.4033 25.3517C29.7796 24.4434 29.9732 23.4698 29.9732 22.4867V7.51346C29.9732 6.53031 29.7796 5.55678 29.4033 4.64846C29.0271 3.74015 28.4756 2.91483 27.7804 2.21963C27.0853 1.52444 26.2599 0.972977 25.3516 0.59674C24.4433 0.220502 23.4698 0.0268555 22.4866 0.0268555ZM25.6609 19.7024C25.6763 20.4856 25.5273 21.2673 25.2263 21.9922C24.6188 23.447 23.4622 24.6035 22.0075 25.211C21.2811 25.512 20.5025 25.6595 19.7162 25.6456H10.508C9.72276 25.6589 8.94305 25.5115 8.21676 25.2126C7.49685 24.9096 6.8412 24.4723 6.28483 23.9241C5.73397 23.3702 5.29678 22.7139 4.9979 21.9922C4.68196 21.2696 4.51883 20.4895 4.51876 19.7009V10.4206C4.50602 9.63517 4.65391 8.85546 4.95337 8.12928C5.54732 6.66841 6.69347 5.50073 8.14304 4.87971C8.89607 4.58694 9.70054 4.44956 10.508 4.47582H19.7914C20.5697 4.46885 21.3416 4.61756 22.0615 4.9132C22.7815 5.20885 23.4351 5.64545 23.9839 6.19736C24.5322 6.75328 24.9683 7.41057 25.2709 8.12928C25.5703 8.85568 25.7193 9.63428 25.7055 10.4206L25.6609 19.7024Z" fill="url(#paint2_linear_1_210)"/>
</g>
<defs>
<linearGradient id="paint0_linear_1_210" x1="14.5377" y1="16.8656" x2="10.2268" y2="15.4023" gradientUnits="userSpaceOnUse">
<stop stop-color="#1850E1"/>
<stop offset="1" stop-color="#7EA2FF"/>
<stop offset="1" stop-color="#C5D5FF"/>
</linearGradient>
<linearGradient id="paint1_linear_1_210" x1="13.6821" y1="19.8872" x2="0.919584" y2="15.5635" gradientUnits="userSpaceOnUse">
<stop stop-color="#1850E1"/>
<stop offset="1" stop-color="#7EA2FF"/>
<stop offset="1" stop-color="#C5D5FF"/>
</linearGradient>
<linearGradient id="paint2_linear_1_210" x1="12.4764" y1="23.7054" x2="-10.5921" y2="15.8053" gradientUnits="userSpaceOnUse">
<stop stop-color="#1850E1"/>
<stop offset="1" stop-color="#7EA2FF"/>
<stop offset="1" stop-color="#C5D5FF"/>
</linearGradient>
<clipPath id="clip0_1_210">
<rect width="30" height="30" fill="white"/>
</clipPath>
</defs>
</svg>
