<svg width="30" height="30" viewBox="0 0 30 30" fill="none" xmlns="http://www.w3.org/2000/svg">
<g clip-path="url(#clip0_1_220)">
<path d="M26.8382 -0.220703C27.7353 -0.220703 28.5956 0.135651 29.2299 0.769965C29.8642 1.40428 30.2206 2.26459 30.2206 3.16165V26.8381C30.2206 27.7352 29.8642 28.5955 29.2299 29.2298C28.5956 29.8641 27.7353 30.2205 26.8382 30.2205H3.16177C2.26472 30.2205 1.4044 29.8641 0.770087 29.2298C0.135773 28.5955 -0.220581 27.7352 -0.220581 26.8381V3.16165C-0.220581 2.26459 0.135773 1.40428 0.770087 0.769965C1.4044 0.135651 2.26472 -0.220703 3.16177 -0.220703H26.8382ZM25.9927 25.9925V17.0293C25.9927 15.5671 25.4118 14.1648 24.3779 13.1309C23.3439 12.0969 21.9416 11.5161 20.4794 11.5161C19.0419 11.5161 17.3677 12.3955 16.5559 13.7146V11.8374H11.8375V25.9925H16.5559V17.655C16.5559 16.3528 17.6044 15.2874 18.9066 15.2874C19.5346 15.2874 20.1368 15.5368 20.5808 15.9809C21.0248 16.4249 21.2743 17.0271 21.2743 17.655V25.9925H25.9927ZM6.34118 9.18224C7.09471 9.18224 7.81738 8.8829 8.3502 8.35008C8.88302 7.81725 9.18236 7.09459 9.18236 6.34106C9.18236 4.76827 7.91398 3.48297 6.34118 3.48297C5.58317 3.48297 4.85621 3.78409 4.32021 4.32009C3.78421 4.85608 3.4831 5.58305 3.4831 6.34106C3.4831 7.91386 4.76839 9.18224 6.34118 9.18224ZM8.69192 25.9925V11.8374H4.00736V25.9925H8.69192Z" fill="url(#paint0_linear_1_220)"/>
</g>
<defs>
<linearGradient id="paint0_linear_1_220" x1="12.4347" y1="23.8491" x2="-11.0149" y2="15.8185" gradientUnits="userSpaceOnUse">
<stop stop-color="#1850E1"/>
<stop offset="1" stop-color="#7EA2FF"/>
<stop offset="1" stop-color="#C5D5FF"/>
</linearGradient>
<clipPath id="clip0_1_220">
<rect width="30" height="30" fill="white"/>
</clipPath>
</defs>
</svg>
