<svg width="30" height="30" viewBox="0 0 30 30" fill="none" xmlns="http://www.w3.org/2000/svg">
<g clip-path="url(#clip0_1_214)">
<path d="M6.16741 14.4778C6.16741 16.1452 6.63616 17.7724 7.52009 19.172L7.72768 19.5068L6.83705 22.7613L10.1786 21.884L10.5 22.0782C11.8527 22.8818 13.4062 23.3104 14.9933 23.3104H15C19.8616 23.3104 23.9263 19.3528 23.9263 14.4845C23.9263 12.1273 22.9085 9.91082 21.2411 8.24341C19.567 6.5693 17.3571 5.65189 15 5.65189C10.1317 5.65189 6.17411 9.60948 6.16741 14.4778ZM18.4018 19.5269C17.558 19.6541 16.9018 19.5872 15.221 18.8639C12.7567 17.7992 11.0826 15.4153 10.7411 14.9331C10.7143 14.893 10.6942 14.8729 10.6875 14.8595C10.5536 14.6854 9.60268 13.4197 9.60268 12.1139C9.60268 10.8818 10.2054 10.2456 10.4866 9.951C10.5067 9.93091 10.5201 9.91751 10.5335 9.89743C10.7746 9.62957 11.0625 9.5626 11.2433 9.5626C11.4174 9.5626 11.5982 9.5626 11.7522 9.5693H11.8058C11.9598 9.5693 12.154 9.5693 12.3482 10.0247C12.4286 10.2189 12.5491 10.5135 12.6763 10.8148C12.8973 11.3506 13.125 11.9064 13.1652 11.9934C13.2321 12.1273 13.279 12.2814 13.1853 12.4555C12.9576 12.9108 12.7232 13.1519 12.5625 13.326C12.3549 13.5403 12.2612 13.6407 12.4085 13.9019C13.433 15.663 14.4576 16.2724 16.0179 17.0559C16.2857 17.1898 16.4397 17.1697 16.5938 16.9889C16.7478 16.8148 17.2567 16.2122 17.4308 15.951C17.6049 15.6831 17.7857 15.73 18.0268 15.8171C18.2679 15.9041 19.5737 16.547 19.8415 16.6809C19.8951 16.7077 19.942 16.7278 19.9821 16.7479C20.1696 16.8416 20.2969 16.9019 20.3504 16.9889C20.4107 17.1162 20.4107 17.6519 20.1897 18.268C19.9688 18.8907 18.9107 19.4532 18.4018 19.5269ZM30 3.85725C30 1.49341 28.0781 -0.428467 25.7143 -0.428467H4.28571C1.92188 -0.428467 0 1.49341 0 3.85725V25.2858C0 27.6497 1.92188 29.5715 4.28571 29.5715H25.7143C28.0781 29.5715 30 27.6497 30 25.2858V3.85725ZM9.91741 23.8059L4.28571 25.2858L5.79241 19.7814C4.86161 18.1742 4.37277 16.3461 4.37277 14.4711C4.37946 8.61841 9.14062 3.85725 14.9933 3.85725C17.8326 3.85725 20.4978 4.96216 22.5067 6.97109C24.5089 8.98001 25.7143 11.6452 25.7143 14.4845C25.7143 20.3372 20.846 25.0983 14.9933 25.0983C13.2121 25.0983 11.4643 24.6497 9.91741 23.8059Z" fill="url(#paint0_linear_1_214)"/>
</g>
<defs>
<linearGradient id="paint0_linear_1_214" x1="12.4719" y1="23.2925" x2="-10.6379" y2="15.3782" gradientUnits="userSpaceOnUse">
<stop stop-color="#1850E1"/>
<stop offset="1" stop-color="#7EA2FF"/>
<stop offset="1" stop-color="#C5D5FF"/>
</linearGradient>
<clipPath id="clip0_1_214">
<rect width="30" height="30" fill="white"/>
</clipPath>
</defs>
</svg>
