<svg width="45" height="45" viewBox="0 0 45 45" fill="none" xmlns="http://www.w3.org/2000/svg">
<g clip-path="url(#clip0_1_193)">
<path d="M6.74625 13.4061C6.08541 13.4051 5.42522 13.4476 4.77 13.5336C4.24375 13.6111 3.79562 13.7668 3.42563 14.0005C3.06155 14.2247 2.76888 14.5479 2.58187 14.9324C2.39812 15.3224 2.31938 15.8136 2.31938 16.4361V19.3124C2.31938 20.1149 2.16188 20.6849 1.845 20.9699C1.52813 21.2811 0.9225 21.4386 0 21.4386V23.6136C0.89625 23.6136 1.52813 23.7693 1.845 24.0805C2.16125 24.3918 2.31938 24.9618 2.31938 25.7905V28.693C2.31938 29.8068 2.6625 30.5849 3.34687 30.9993C4.05937 31.3874 5.19187 31.5955 6.74625 31.5955V29.5743C6.00938 29.5743 5.535 29.443 5.29688 29.2105C5.06063 28.978 4.95375 28.5111 4.95375 27.8118V25.0649C4.95375 24.3655 4.77 23.8218 4.42875 23.4336C4.08375 23.0436 3.53062 22.7324 2.7675 22.5261C3.50437 22.2918 4.0575 21.9824 4.40062 21.5661C4.74375 21.1536 4.9275 20.608 4.9275 19.9349V17.188C4.9275 16.513 5.03438 16.048 5.27063 15.8136C5.49938 15.5886 6.04313 15.448 6.74625 15.4386V23.9643C6.74625 24.7443 6.8025 25.3968 6.915 25.9218C7.02625 26.4455 7.2225 26.898 7.50375 27.2793C7.78625 27.6593 8.17125 27.9361 8.65875 28.1099C9.14625 28.2849 9.76125 28.3724 10.5038 28.3724C10.6875 28.3724 10.8875 28.3599 11.1038 28.3349C11.514 28.2949 11.9211 28.2278 12.3225 28.1343L12.255 26.2968C11.7487 26.368 11.3319 26.4036 11.0044 26.4036C10.3431 26.4036 9.8975 26.2311 9.6675 25.8861C9.43875 25.5424 9.32438 24.8855 9.32438 23.9155V13.4043L6.74625 13.4061ZM38.28 13.4043V15.4518C39.0169 15.4518 39.4931 15.5811 39.7294 15.8136C39.9675 16.048 40.0725 16.513 40.0725 17.188V19.9349C40.0725 20.608 40.2563 21.1536 40.5975 21.5661C40.9425 21.9824 41.4956 22.2918 42.2325 22.5261C41.4694 22.7324 40.9162 23.0436 40.5731 23.4318C40.23 23.8218 40.0462 24.3655 40.0462 25.0649V27.8118C40.0462 28.5111 39.9394 28.978 39.7031 29.2105C39.4669 29.4449 38.9906 29.5743 38.2537 29.5743V31.5955C39.81 31.5955 40.9425 31.3893 41.6531 30.9993C42.3375 30.5849 42.6806 29.8068 42.6806 28.693V25.7905C42.6806 24.9618 42.8388 24.3918 43.155 24.0805C43.4719 23.7693 44.1037 23.6136 45 23.6136V21.4386C44.0775 21.4386 43.4719 21.2811 43.155 20.9699C42.84 20.6868 42.6806 20.1149 42.6806 19.3124V16.4361C42.6806 15.8136 42.6019 15.3224 42.4181 14.9343C42.2314 14.5491 41.9387 14.2252 41.5744 14.0005C41.1645 13.7511 40.7062 13.5919 40.23 13.5336C39.5841 13.4421 38.9323 13.3989 38.28 13.4043ZM26.1319 17.1074C24.8663 17.1074 23.865 17.3699 23.1544 17.8968C22.4419 18.4236 22.0744 19.1886 22.0744 20.1636C22.0744 20.9549 22.2844 21.613 22.7325 22.0874C23.1806 22.5618 23.8913 22.9836 24.8925 23.3774C24.9731 23.4055 25.155 23.4843 25.4475 23.5893C26.2912 23.9324 26.8687 24.1705 27.1594 24.4068C27.2982 24.5114 27.411 24.6467 27.4887 24.8022C27.5665 24.9577 27.6071 25.1291 27.6075 25.303C27.6075 25.723 27.4494 26.0393 27.1331 26.2518C26.8156 26.4618 26.3675 26.5668 25.7887 26.5668C25.2356 26.5668 24.6038 26.4618 23.9438 26.2761C23.3676 26.132 22.8105 25.9198 22.2844 25.6443L22.0219 27.5943C22.9688 28.1493 24.2344 28.4118 25.8412 28.4118C27.1856 28.4118 28.2131 28.1211 28.9519 27.5418C29.6887 26.9624 30.0581 26.1186 30.0581 25.0386C30.0581 24.2211 29.8206 23.5624 29.3456 23.0624C28.8731 22.5618 28.1606 22.1399 27.1594 21.7705C26.4431 21.4893 25.5844 21.2511 24.8925 20.8218C24.7584 20.7396 24.6488 20.6231 24.5749 20.4843C24.5011 20.3455 24.4657 20.1895 24.4725 20.0324C24.4725 19.6893 24.63 19.4249 24.9206 19.2411C25.2113 19.0574 25.605 18.9786 26.1319 18.9786C27.0806 18.9786 28.0556 19.2149 29.0831 19.6893L29.7675 17.8968C28.7138 17.3718 27.5019 17.1086 26.1319 17.1074ZM34.5919 17.1074C33.3262 17.1074 32.3231 17.3699 31.6125 17.8968C30.9 18.4236 30.5325 19.1886 30.5325 20.1636C30.5325 20.9549 30.7425 21.613 31.1906 22.0874C31.6406 22.5618 32.3512 22.9836 33.3525 23.3774C33.4313 23.4055 33.615 23.4843 33.9056 23.5893C34.7494 23.9324 35.3288 24.1705 35.6194 24.4068C35.7579 24.5116 35.8703 24.647 35.9477 24.8025C36.0251 24.958 36.0655 25.1293 36.0656 25.303C36.0656 25.723 35.9075 26.0393 35.5913 26.2518C35.2762 26.4618 34.8288 26.5668 34.2488 26.5668C33.6235 26.5535 33.0028 26.4557 32.4037 26.2761C31.8269 26.1321 31.2692 25.92 30.7425 25.6443L30.48 27.5943C31.4288 28.1493 32.6925 28.4118 34.3013 28.4118C35.6188 28.4118 36.6725 28.1218 37.4625 27.5418C38.2012 26.9624 38.5687 26.1186 38.5687 25.0386C38.5687 24.2211 38.3319 23.5624 37.8581 23.0624C37.1475 22.3124 36.6731 22.1399 35.6719 21.7705C34.9369 21.4836 34.0931 21.2511 33.405 20.8218C33.2706 20.7398 33.1606 20.6234 33.0864 20.4846C33.0122 20.3458 32.9765 20.1896 32.9831 20.0324C32.9831 19.6893 33.1425 19.4249 33.4331 19.2411C33.7237 19.0574 34.1156 18.9786 34.6444 18.9786C35.5931 18.9786 36.5681 19.2149 37.5956 19.6893L38.2275 17.8968C37.1738 17.3718 35.9631 17.1086 34.5919 17.1074ZM16.8544 17.1336C15.2756 17.1336 14.0363 17.6343 13.1137 18.6618C12.1912 19.6893 11.745 21.0599 11.745 22.7718C11.745 24.5643 12.2175 25.9349 13.1925 26.9343C14.1675 27.9374 15.5119 28.438 17.2519 28.438C18.7519 28.438 20.0456 28.0949 21.1519 27.463L20.7825 25.618C19.7489 26.216 18.5772 26.534 17.3831 26.5405C16.4606 26.5405 15.7219 26.2499 15.195 25.6968C14.67 25.1436 14.3794 24.3543 14.3512 23.353H21.5737V22.2449C21.5737 20.6905 21.1519 19.4511 20.3344 18.5286C19.4906 17.608 18.3563 17.1336 16.8544 17.1336ZM16.83 18.9768C17.5425 18.9768 18.0956 19.2143 18.4894 19.6893C18.885 20.1636 19.095 20.848 19.095 21.718H14.3813C14.46 20.7955 14.7225 20.1111 15.1444 19.663C15.6187 19.2149 16.1719 18.9768 16.8319 18.9768H16.83Z" fill="url(#paint0_linear_1_193)"/>
</g>
<defs>
<linearGradient id="paint0_linear_1_193" x1="18.7079" y1="27.7879" x2="-3.84075" y2="8.68632" gradientUnits="userSpaceOnUse">
<stop stop-color="#1850E1"/>
<stop offset="1" stop-color="#7EA2FF"/>
<stop offset="1" stop-color="#C5D5FF"/>
</linearGradient>
<clipPath id="clip0_1_193">
<rect width="45" height="45" fill="white"/>
</clipPath>
</defs>
</svg>
