<svg width="45" height="45" viewBox="0 0 45 45" fill="none" xmlns="http://www.w3.org/2000/svg">
<path d="M22.5 3.75C12.1687 3.75 3.75 12.1687 3.75 22.5C3.75 32.8313 12.1687 41.25 22.5 41.25C32.8313 41.25 41.25 32.8313 41.25 22.5C41.25 12.1687 32.8313 3.75 22.5 3.75ZM5.64375 22.5C5.64375 20.0625 6.16875 17.7375 7.10625 15.6375L15.15 37.6688C9.525 34.9312 5.64375 29.175 5.64375 22.5ZM22.5 39.3563C20.85 39.3563 19.2563 39.1125 17.7375 38.6625L22.8 23.9625L27.975 38.1562C28.0125 38.2313 28.05 38.325 28.0875 38.3812C26.3438 39.0187 24.4688 39.3563 22.5 39.3563ZM24.825 14.5875C25.8375 14.5312 26.7563 14.4187 26.7563 14.4187C27.6562 14.3063 27.5625 12.975 26.6437 13.0312C26.6437 13.0312 23.9062 13.2375 22.1438 13.2375C20.4938 13.2375 17.7 13.0312 17.7 13.0312C16.8 12.9937 16.6875 14.3812 17.6063 14.4375C17.6063 14.4375 18.4688 14.55 19.3687 14.6062L21.9937 21.8062L18.3 32.8688L12.1687 14.5875C13.1812 14.55 14.1 14.4375 14.1 14.4375C15 14.325 14.9062 12.9937 13.9875 13.05C13.9875 13.05 11.25 13.2563 9.4875 13.2563C9.16875 13.2563 8.79375 13.2562 8.4 13.2375C11.4375 8.6625 16.6125 5.64375 22.5 5.64375C26.8875 5.64375 30.8812 7.3125 33.8812 10.0687C33.8062 10.0687 33.7313 10.05 33.6563 10.05C32.0063 10.05 30.825 11.4938 30.825 13.05C30.825 14.4375 31.6313 15.6187 32.475 17.0062C33.1125 18.1312 33.8625 19.575 33.8625 21.6562C33.8625 23.1 33.3 24.7687 32.5875 27.1125L30.9 32.7375L24.825 14.5875ZM37.2937 14.4187C39.3998 18.2731 39.9178 22.7973 38.7376 27.0279C37.5574 31.2585 34.7721 34.8612 30.975 37.0688L36.1313 22.1812C37.0875 19.7812 37.4062 17.85 37.4062 16.1437C37.4062 15.525 37.3687 14.9438 37.2937 14.4187Z" fill="url(#paint0_linear_1_195)"/>
<defs>
<linearGradient id="paint0_linear_1_195" x1="19.3399" y1="33.4012" x2="-9.54738" y2="23.5084" gradientUnits="userSpaceOnUse">
<stop stop-color="#1850E1"/>
<stop offset="1" stop-color="#7EA2FF"/>
<stop offset="1" stop-color="#C5D5FF"/>
</linearGradient>
</defs>
</svg>
