<svg width="45" height="45" viewBox="0 0 45 45" fill="none" xmlns="http://www.w3.org/2000/svg">
<g clip-path="url(#clip0_1_189)">
<path d="M1.4993 1.5V0C1.29176 9.66626e-05 1.08649 0.0432619 0.896488 0.126765C0.706483 0.210269 0.535875 0.332294 0.395454 0.485122C0.255033 0.63795 0.147854 0.818255 0.0806978 1.01463C0.0135412 1.21101 -0.0121322 1.41919 0.00530152 1.626L1.4993 1.5ZM43.4993 1.5L44.9933 1.626C45.0107 1.41919 44.9851 1.21101 44.9179 1.01463C44.8507 0.818255 44.7436 0.63795 44.6031 0.485122C44.4627 0.332294 44.2921 0.210269 44.1021 0.126765C43.9121 0.0432619 43.7068 9.66626e-05 43.4993 0V1.5ZM40.4993 37.5L40.9733 38.922C41.2518 38.8291 41.4969 38.6564 41.6782 38.4255C41.8595 38.1946 41.9691 37.9156 41.9933 37.623L40.4993 37.5ZM22.4993 43.5L22.0253 44.922C22.333 45.0247 22.6656 45.0247 22.9733 44.922L22.4993 43.5ZM4.4993 37.5L3.0053 37.623C3.02954 37.9156 3.13911 38.1946 3.32042 38.4255C3.50173 38.6564 3.74682 38.8291 4.0253 38.922L4.4993 37.5ZM31.4993 10.5H32.9993V9H31.4993V10.5ZM31.4993 28.5L31.9733 29.922L32.9993 29.58V28.5H31.4993ZM22.4993 31.5L22.0253 32.922L22.4993 33.081L22.9733 32.922L22.4993 31.5ZM13.4993 28.5H11.9993V29.58L13.0253 29.922L13.4993 28.5ZM1.4993 3H43.4993V0L1.4993 0V3ZM42.0053 1.374L39.0053 37.374L41.9933 37.623L44.9933 1.626L42.0053 1.374ZM40.0253 36.078L22.0253 42.078L22.9733 44.922L40.9733 38.922L40.0253 36.078ZM22.9733 42.078L4.9733 36.078L4.0253 38.922L22.0253 44.922L22.9733 42.078ZM5.9933 37.377L2.9933 1.377L0.00530152 1.626L3.0053 37.623L5.9933 37.377ZM31.4993 9H11.9993V12H31.4993V9ZM17.9993 21H31.4993V18H17.9993V21ZM29.9993 19.5V28.5H32.9993V19.5H29.9993ZM31.0253 27.078L22.0253 30.078L22.9733 32.922L31.9733 29.922L31.0253 27.078ZM22.9733 30.078L13.9733 27.078L13.0253 29.922L22.0253 32.922L22.9733 30.078ZM14.9993 28.5V24H11.9993V28.5H14.9993ZM29.9993 10.5V19.5H32.9993V10.5H29.9993Z" fill="url(#paint0_linear_1_189)"/>
</g>
<defs>
<linearGradient id="paint0_linear_1_189" x1="18.7073" y1="35.5806" x2="-15.9564" y2="23.7098" gradientUnits="userSpaceOnUse">
<stop stop-color="#1850E1"/>
<stop offset="1" stop-color="#7EA2FF"/>
<stop offset="1" stop-color="#C5D5FF"/>
</linearGradient>
<clipPath id="clip0_1_189">
<rect width="45" height="45" fill="white"/>
</clipPath>
</defs>
</svg>
