<svg width="45" height="45" viewBox="0 0 45 45" fill="none" xmlns="http://www.w3.org/2000/svg">
<path fill-rule="evenodd" clip-rule="evenodd" d="M16.2507 17.6569C15.6147 17.6569 14.9849 17.7821 14.3973 18.0255C13.8097 18.2689 13.2758 18.6257 12.8261 19.0754C12.3764 19.5251 12.0196 20.059 11.7762 20.6466C11.5328 21.2342 11.4076 21.864 11.4076 22.5C11.4076 23.136 11.5328 23.7658 11.7762 24.3534C12.0196 24.941 12.3764 25.4749 12.8261 25.9246C13.2758 26.3743 13.8097 26.7311 14.3973 26.9745C14.9849 27.2179 15.6147 27.3431 16.2507 27.3431H21.0938V22.5975C21.0931 22.5325 21.0931 22.4675 21.0938 22.4025V17.6569H16.2507ZM21.0938 14.8444H16.2507C14.966 14.8444 13.7339 14.334 12.8254 13.4256C11.917 12.5171 11.4066 11.285 11.4066 10.0003C11.4066 8.71559 11.917 7.48348 12.8254 6.57504C13.7339 5.6666 14.966 5.15625 16.2507 5.15625H21.0938V14.8444ZM23.9063 5.15625V14.8444H28.7494C30.0177 14.8194 31.2255 14.2981 32.1136 13.3924C33.0017 12.4867 33.4991 11.2688 33.4991 10.0003C33.4991 8.73184 33.0017 7.51396 32.1136 6.60824C31.2255 5.70252 30.0177 5.1812 28.7494 5.15625H23.9063ZM28.7494 17.655C27.4782 17.6548 26.2578 18.1545 25.3517 19.0462C24.4456 19.9379 23.9265 21.1501 23.9063 22.4212V22.5769C23.9218 23.5312 24.219 24.4598 24.7605 25.2458C25.302 26.0318 26.0637 26.6403 26.95 26.9948C27.8362 27.3493 28.8074 27.4341 29.7416 27.2384C30.6759 27.0427 31.5314 26.5754 32.2009 25.895C32.8704 25.2146 33.3239 24.3516 33.5045 23.4144C33.685 22.4771 33.5846 21.5074 33.2159 20.627C32.8471 19.7466 32.2264 18.9948 31.4318 18.4661C30.6371 17.9373 29.7039 17.6551 28.7494 17.655ZM16.2507 30.1556C15.2924 30.1553 14.3554 30.4391 13.5584 30.9712C12.7614 31.5034 12.1401 32.2599 11.7732 33.1452C11.4062 34.0305 11.3099 35.0047 11.4967 35.9447C11.6834 36.8846 12.1447 37.7481 12.8222 38.4259C13.4997 39.1037 14.363 39.5653 15.3029 39.7524C16.2428 39.9395 17.2171 39.8437 18.1025 39.477C18.9879 39.1103 19.7447 38.4894 20.2772 37.6926C20.8096 36.8958 21.0938 35.959 21.0938 35.0006V30.1556H16.2507Z" fill="url(#paint0_linear_1_199)"/>
<defs>
<linearGradient id="paint0_linear_1_199" x1="20.6281" y1="32.5851" x2="2.40575" y2="28.5935" gradientUnits="userSpaceOnUse">
<stop stop-color="#1850E1"/>
<stop offset="1" stop-color="#7EA2FF"/>
<stop offset="1" stop-color="#C5D5FF"/>
</linearGradient>
</defs>
</svg>
