<svg width="45" height="45" viewBox="0 0 45 45" fill="none" xmlns="http://www.w3.org/2000/svg">
<path d="M39.375 13.125V31.875C39.375 33.8641 38.5848 35.7718 37.1783 37.1783C35.7718 38.5848 33.8641 39.375 31.875 39.375H13.125C11.1359 39.375 9.22822 38.5848 7.8217 37.1783C6.41518 35.7718 5.625 33.8641 5.625 31.875V13.125C5.625 11.1359 6.41518 9.22822 7.8217 7.8217C9.22822 6.41518 11.1359 5.625 13.125 5.625H31.875C33.8641 5.625 35.7718 6.41518 37.1783 7.8217C38.5848 9.22822 39.375 11.1359 39.375 13.125Z" stroke="url(#paint0_linear_1_201)" stroke-width="1.5" stroke-linecap="round" stroke-linejoin="round"/>
<path d="M13.125 30V22.5M13.125 22.5V15H16.875C17.8696 15 18.8234 15.3951 19.5266 16.0984C20.2299 16.8016 20.625 17.7554 20.625 18.75C20.625 19.7446 20.2299 20.6984 19.5266 21.4016C18.8234 22.1049 17.8696 22.5 16.875 22.5H13.125ZM31.875 20.625C31.3013 19.4756 30.1256 18.75 28.8412 18.75H28.125C27.3791 18.75 26.6637 19.0463 26.1363 19.5738C25.6088 20.1012 25.3125 20.8166 25.3125 21.5625C25.3125 22.3084 25.6088 23.0238 26.1363 23.5512C26.6637 24.0787 27.3791 24.375 28.125 24.375H29.0625C29.8084 24.375 30.5238 24.6713 31.0512 25.1988C31.5787 25.7262 31.875 26.4416 31.875 27.1875C31.875 27.9334 31.5787 28.6488 31.0512 29.1762C30.5238 29.7037 29.8084 30 29.0625 30H28.3463C27.7164 29.9998 27.099 29.8243 26.5632 29.4931C26.0274 29.162 25.5944 28.6883 25.3125 28.125" stroke="url(#paint1_linear_1_201)" stroke-width="1.5" stroke-linecap="round" stroke-linejoin="round"/>
<defs>
<linearGradient id="paint0_linear_1_201" x1="19.6559" y1="32.311" x2="-6.34264" y2="23.4076" gradientUnits="userSpaceOnUse">
<stop stop-color="#1850E1"/>
<stop offset="1" stop-color="#7EA2FF"/>
<stop offset="1" stop-color="#C5D5FF"/>
</linearGradient>
<linearGradient id="paint1_linear_1_201" x1="20.9199" y1="26.8605" x2="7.28159" y2="21.0222" gradientUnits="userSpaceOnUse">
<stop stop-color="#1850E1"/>
<stop offset="1" stop-color="#7EA2FF"/>
<stop offset="1" stop-color="#C5D5FF"/>
</linearGradient>
</defs>
</svg>
