<svg width="142" height="26" viewBox="0 0 142 26" fill="none" xmlns="http://www.w3.org/2000/svg">
<path d="M0.571688 19.87V5.83C0.571688 3.31667 1.81969 2.06 4.31569 2.06H16.5097V18.44H10.1137C7.56569 18.44 6.29169 17.166 6.29169 14.618V11.082C6.29169 8.534 7.56569 7.26 10.1137 7.26H14.9757V3.412H4.28969C2.85102 3.412 2.13169 4.13133 2.13169 5.57V20.13C2.13169 21.5687 2.85102 22.288 4.28969 22.288H15.9897V22.964L15.1057 23.64H4.31569C1.81969 23.64 0.571688 22.3833 0.571688 19.87ZM7.92969 14.878C7.92969 16.2993 8.64035 17.01 10.0617 17.01H14.8717V8.69H10.0617C8.64035 8.69 7.92969 9.40067 7.92969 10.822V14.878ZM20.8478 16.178V10.354C20.8478 7.806 22.1218 6.532 24.6698 6.532H30.2078V0.76H31.8458V20H24.6698C22.1218 20 20.8478 18.726 20.8478 16.178ZM22.4858 16.438C22.4858 17.8593 23.1965 18.57 24.6178 18.57H30.2078V7.988H24.6178C23.1965 7.988 22.4858 8.69 22.4858 10.094V16.438ZM39.2579 20C36.6925 20 35.4099 18.7173 35.4099 16.152C35.4099 13.5693 36.6925 12.278 39.2579 12.278H44.3539V10.094C44.3539 8.69 43.6519 7.988 42.2479 7.988H36.6579V7.208L37.5679 6.532H42.1959C44.7265 6.532 45.9919 7.806 45.9919 10.354V20H39.2579ZM37.0479 16.438C37.0479 17.8593 37.7585 18.57 39.1799 18.57H44.3539V13.656H39.1799C37.7585 13.656 37.0479 14.358 37.0479 15.762V16.438ZM48.5669 6.87L48.7749 6.532H50.2049L54.3649 18.57H54.9629L59.1489 6.532H60.5529L60.7609 6.87L56.1069 20H53.2469L48.5669 6.87ZM63.3034 3.958V1.826H65.1754V3.958H63.3034ZM63.4074 20V6.532H65.0454V20H63.4074ZM69.3234 25.2V6.532H76.5254C79.0561 6.532 80.3214 7.806 80.3214 10.354V16.178C80.3214 18.726 79.0561 20 76.5254 20H70.9614V25.2H69.3234ZM70.9614 18.57H76.5774C77.9814 18.57 78.6834 17.8593 78.6834 16.438V10.094C78.6834 8.69 77.9814 7.988 76.5774 7.988H70.9614V18.57ZM84.3014 16.698V0.76H85.9394V16.828C85.9394 18.076 86.5721 18.726 87.8374 18.778V20.208C85.4801 20.208 84.3014 19.038 84.3014 16.698ZM93.8985 20C91.3332 20 90.0505 18.7173 90.0505 16.152C90.0505 13.5693 91.3332 12.278 93.8985 12.278H98.9945V10.094C98.9945 8.69 98.2925 7.988 96.8885 7.988H91.2985V7.208L92.2085 6.532H96.8365C99.3672 6.532 100.632 7.806 100.632 10.354V20H93.8985ZM91.6885 16.438C91.6885 17.8593 92.3992 18.57 93.8205 18.57H98.9945V13.656H93.8205C92.3992 13.656 91.6885 14.358 91.6885 15.762V16.438ZM104.612 16.178V10.354C104.612 7.806 105.886 6.532 108.434 6.532H113.608L114.492 7.208V7.988H108.382C106.96 7.988 106.25 8.69 106.25 10.094V16.438C106.25 17.8593 106.96 18.57 108.382 18.57H114.492V19.324L113.608 20H108.434C105.886 20 104.612 18.726 104.612 16.178ZM117.612 16.178V10.354C117.612 7.806 118.886 6.532 121.434 6.532H126.608L127.492 7.208V7.988H121.382C119.96 7.988 119.25 8.69 119.25 10.094V16.438C119.25 17.8593 119.96 18.57 121.382 18.57H127.492V19.324L126.608 20H121.434C118.886 20 117.612 18.726 117.612 16.178ZM130.612 16.178V10.354C130.612 7.806 131.886 6.532 134.434 6.532H138.074C140.604 6.532 141.87 7.806 141.87 10.354V16.178C141.87 18.726 140.604 20 138.074 20H134.434C131.886 20 130.612 18.726 130.612 16.178ZM132.25 16.438C132.25 17.8593 132.96 18.57 134.382 18.57H138.126C139.53 18.57 140.232 17.8593 140.232 16.438V10.094C140.232 8.69 139.53 7.988 138.126 7.988H134.382C132.96 7.988 132.25 8.69 132.25 10.094V16.438Z" fill="url(#paint0_linear_1_223)"/>
<defs>
<linearGradient id="paint0_linear_1_223" x1="58.6966" y1="22.093" x2="20.5679" y2="-35.677" gradientUnits="userSpaceOnUse">
<stop stop-color="#1850E1"/>
<stop offset="1" stop-color="#7EA2FF"/>
<stop offset="1" stop-color="#C5D5FF"/>
</linearGradient>
</defs>
</svg>
