<svg width="55" height="55" viewBox="0 0 55 55" fill="none" xmlns="http://www.w3.org/2000/svg">
<path d="M7.55333 47.2128L22.1375 32.6287M40.5029 26.1433L36.1373 39.2401C36.0676 39.4501 35.9483 39.6401 35.7895 39.7941C35.6308 39.9481 35.4372 40.0615 35.2252 40.1247L8.46312 48.0791C8.22202 48.1507 7.96589 48.1548 7.72261 48.091C7.47934 48.0271 7.25824 47.8978 7.08337 47.717C6.9085 47.5362 6.78657 47.3109 6.73084 47.0657C6.6751 46.8204 6.68771 46.5646 6.76729 46.326L15.4573 20.2606C15.5196 20.0734 15.6214 19.9018 15.7558 19.7575C15.8903 19.6132 16.0542 19.4995 16.2365 19.4241L28.5817 14.3412C28.8326 14.2375 29.1087 14.2105 29.375 14.2635C29.6413 14.3165 29.886 14.4472 30.0781 14.6391L40.1706 24.7362C40.3512 24.9167 40.4779 25.144 40.5366 25.3925C40.5953 25.6411 40.5836 25.901 40.5029 26.1433Z" stroke="url(#paint0_linear_1_161)" stroke-width="2.5" stroke-linecap="round" stroke-linejoin="round"/>
<path d="M40.7733 25.3367L47.2542 18.8536C48.1134 17.9941 48.5961 16.8285 48.5961 15.6132C48.5961 14.3978 48.1134 13.2323 47.2542 12.3727L42.3958 7.50983C41.9702 7.08403 41.4648 6.74626 40.9086 6.51581C40.3525 6.28536 39.7563 6.16675 39.1543 6.16675C38.5522 6.16675 37.9561 6.28536 37.3999 6.51581C36.8437 6.74626 36.3383 7.08403 35.9127 7.50983L29.4319 13.993M26.9981 27.7659C26.6788 27.4467 26.2998 27.1936 25.8826 27.0209C25.4655 26.8482 25.0184 26.7594 24.567 26.7595C24.1155 26.7596 23.6685 26.8487 23.2515 27.0215C22.8344 27.1944 22.4555 27.4477 22.1363 27.767C21.8172 28.0863 21.564 28.4654 21.3914 28.8825C21.2187 29.2996 21.1299 29.7467 21.13 30.1981C21.1301 30.6496 21.2191 31.0966 21.392 31.5137C21.5649 31.9307 21.8182 32.3096 22.1375 32.6288C22.7823 33.2733 23.6568 33.6353 24.5686 33.6351C25.4804 33.6349 26.3547 33.2725 26.9993 32.6276C27.6438 31.9828 28.0058 31.1083 28.0056 30.1965C28.0054 29.2848 27.643 28.4104 26.9981 27.7659Z" stroke="url(#paint1_linear_1_161)" stroke-width="2.5" stroke-linecap="round" stroke-linejoin="round"/>
<defs>
<linearGradient id="paint0_linear_1_161" x1="20.7803" y1="41.0409" x2="-5.31953" y2="32.1086" gradientUnits="userSpaceOnUse">
<stop stop-color="#1850E1"/>
<stop offset="1" stop-color="#7EA2FF"/>
<stop offset="1" stop-color="#C5D5FF"/>
</linearGradient>
<linearGradient id="paint1_linear_1_161" x1="32.5485" y1="27.8859" x2="11.3902" y2="20.6407" gradientUnits="userSpaceOnUse">
<stop stop-color="#1850E1"/>
<stop offset="1" stop-color="#7EA2FF"/>
<stop offset="1" stop-color="#C5D5FF"/>
</linearGradient>
</defs>
</svg>
