<svg width="45" height="45" viewBox="0 0 45 45" fill="none" xmlns="http://www.w3.org/2000/svg">
<g clip-path="url(#clip0_1_186)">
<path d="M13.71 16.875H10.665L6.5625 28.125H9.57562L10.4119 25.8262H13.9631L14.7994 28.125H17.8125L13.71 16.875ZM11.0963 23.9512L12.1875 20.9625L13.2787 23.9531L11.0963 23.9512ZM27.645 16.875H21.0825V28.125H23.895V24.375H27.645C28.0162 24.3819 28.385 24.3138 28.7294 24.1749C29.0737 24.036 29.3865 23.8291 29.649 23.5665C29.9116 23.304 30.1185 22.9912 30.2574 22.6469C30.3963 22.3025 30.4644 21.9337 30.4575 21.5625V19.6875C30.4644 19.3163 30.3963 18.9474 30.2574 18.6031C30.1185 18.2588 29.9116 17.946 29.649 17.6834C29.3865 17.4209 29.0737 17.214 28.7294 17.0751C28.385 16.9362 28.0162 16.8681 27.645 16.875ZM27.645 21.5625H23.895V19.6875H27.645V21.5625ZM33.75 16.875H36.5625V28.125H33.75V16.875Z" fill="url(#paint0_linear_1_186)"/>
<path d="M41.25 11.25V33.75H3.75V11.25H41.25ZM41.25 7.5H3.75C2.75544 7.5 1.80161 7.89509 1.09835 8.59835C0.395088 9.30161 0 10.2554 0 11.25L0 33.75C0 34.7446 0.395088 35.6984 1.09835 36.4016C1.80161 37.1049 2.75544 37.5 3.75 37.5H41.25C42.2446 37.5 43.1984 37.1049 43.9016 36.4016C44.6049 35.6984 45 34.7446 45 33.75V11.25C45 10.2554 44.6049 9.30161 43.9016 8.59835C43.1984 7.89509 42.2446 7.5 41.25 7.5Z" fill="url(#paint1_linear_1_186)"/>
</g>
<defs>
<linearGradient id="paint0_linear_1_186" x1="19.0344" y1="25.7702" x2="4.9552" y2="12.9132" gradientUnits="userSpaceOnUse">
<stop stop-color="#1850E1"/>
<stop offset="1" stop-color="#7EA2FF"/>
<stop offset="1" stop-color="#C5D5FF"/>
</linearGradient>
<linearGradient id="paint1_linear_1_186" x1="18.7079" y1="31.2209" x2="-11.936" y2="15.4794" gradientUnits="userSpaceOnUse">
<stop stop-color="#1850E1"/>
<stop offset="1" stop-color="#7EA2FF"/>
<stop offset="1" stop-color="#C5D5FF"/>
</linearGradient>
<clipPath id="clip0_1_186">
<rect width="45" height="45" fill="white"/>
</clipPath>
</defs>
</svg>
