<svg width="45" height="45" viewBox="0 0 45 45" fill="none" xmlns="http://www.w3.org/2000/svg">
<path d="M26.25 21.0938C26.25 19.2825 27.72 17.8125 29.5312 17.8125H32.3438C32.7167 17.8125 33.0744 17.9607 33.3381 18.2244C33.6018 18.4881 33.75 18.8458 33.75 19.2188C33.75 19.5917 33.6018 19.9494 33.3381 20.2131C33.0744 20.4768 32.7167 20.625 32.3438 20.625H29.5312C29.4069 20.625 29.2877 20.6744 29.1998 20.7623C29.1119 20.8502 29.0625 20.9694 29.0625 21.0938V23.9062C29.0625 24.165 29.2725 24.375 29.5312 24.375H30.4688C32.28 24.375 33.75 25.845 33.75 27.6562V30.4688C33.75 31.339 33.4043 32.1736 32.7889 32.7889C32.1736 33.4043 31.339 33.75 30.4688 33.75H27.6562C27.2833 33.75 26.9256 33.6018 26.6619 33.3381C26.3982 33.0744 26.25 32.7167 26.25 32.3438C26.25 31.9708 26.3982 31.6131 26.6619 31.3494C26.9256 31.0857 27.2833 30.9375 27.6562 30.9375H30.4688C30.5931 30.9375 30.7123 30.8881 30.8002 30.8002C30.8881 30.7123 30.9375 30.5931 30.9375 30.4688V27.6562C30.9375 27.5319 30.8881 27.4127 30.8002 27.3248C30.7123 27.2369 30.5931 27.1875 30.4688 27.1875H29.5312C28.661 27.1875 27.8264 26.8418 27.2111 26.2264C26.5957 25.6111 26.25 24.7765 26.25 23.9062V21.0938ZM23.9062 19.2188C23.9062 18.8458 23.7581 18.4881 23.4944 18.2244C23.2306 17.9607 22.873 17.8125 22.5 17.8125C22.127 17.8125 21.7694 17.9607 21.5056 18.2244C21.2419 18.4881 21.0938 18.8458 21.0938 19.2188V30.4688C21.0938 30.5931 21.0444 30.7123 20.9565 30.8002C20.8685 30.8881 20.7493 30.9375 20.625 30.9375H18.2812C17.9083 30.9375 17.5506 31.0857 17.2869 31.3494C17.0232 31.6131 16.875 31.9708 16.875 32.3438C16.875 32.7167 17.0232 33.0744 17.2869 33.3381C17.5506 33.6018 17.9083 33.75 18.2812 33.75H20.625C21.4952 33.75 22.3298 33.4043 22.9452 32.7889C23.5605 32.1736 23.9062 31.339 23.9062 30.4688V19.2188ZM5.625 11.7188V33.2812C5.625 34.8974 6.26702 36.4474 7.40982 37.5902C8.55262 38.733 10.1026 39.375 11.7188 39.375H33.2812C34.8974 39.375 36.4474 38.733 37.5902 37.5902C38.733 36.4474 39.375 34.8974 39.375 33.2812V11.7188C39.375 10.1026 38.733 8.55262 37.5902 7.40982C36.4474 6.26702 34.8974 5.625 33.2812 5.625H11.7188C10.1026 5.625 8.55262 6.26702 7.40982 7.40982C6.26702 8.55262 5.625 10.1026 5.625 11.7188ZM11.7188 8.4375H33.2812C35.0925 8.4375 36.5625 9.9075 36.5625 11.7188V33.2812C36.5625 34.1515 36.2168 34.9861 35.6014 35.6014C34.9861 36.2168 34.1515 36.5625 33.2812 36.5625H11.7188C10.8485 36.5625 10.0139 36.2168 9.39856 35.6014C8.7832 34.9861 8.4375 34.1515 8.4375 33.2812V11.7188C8.4375 9.9075 9.9075 8.4375 11.7188 8.4375Z" fill="url(#paint0_linear_1_184)"/>
<defs>
<linearGradient id="paint0_linear_1_184" x1="19.6559" y1="32.311" x2="-6.34264" y2="23.4076" gradientUnits="userSpaceOnUse">
<stop stop-color="#1850E1"/>
<stop offset="1" stop-color="#7EA2FF"/>
<stop offset="1" stop-color="#C5D5FF"/>
</linearGradient>
</defs>
</svg>
