<svg width="45" height="52" viewBox="0 0 45 52" fill="none" xmlns="http://www.w3.org/2000/svg">
<g clip-path="url(#clip0_1_182)">
<path d="M22.5 51.0267C21.827 51.0267 21.144 50.8459 20.5513 50.5044L14.3538 46.8381C13.4297 46.3158 13.8817 46.135 14.183 46.0345C15.4185 45.6026 15.6696 45.5122 16.9855 44.7589C17.1261 44.6785 17.3069 44.7086 17.4475 44.799L22.2087 47.6216C22.3795 47.722 22.6205 47.722 22.7812 47.6216L41.3337 36.914C41.5045 36.8135 41.615 36.6127 41.615 36.4118V14.9966C41.615 14.7856 41.5045 14.5948 41.3237 14.4843L22.7812 3.78676C22.6105 3.68631 22.3795 3.68631 22.2087 3.78676L3.67634 14.4943C3.49554 14.5948 3.38504 14.7957 3.38504 15.0066V36.4118C3.38504 36.6127 3.49554 36.8135 3.67634 36.9039L8.75893 39.837C11.5212 41.2131 13.2087 39.5959 13.2087 37.9586V16.8247C13.2087 16.5234 13.4498 16.2923 13.7511 16.2923H16.1016C16.3929 16.2923 16.644 16.5234 16.644 16.8247V37.9687C16.644 41.645 14.635 43.7544 11.1496 43.7544C10.0748 43.7544 9.23103 43.7544 6.88058 42.5892L2.01897 39.7868C0.813616 39.0937 0.0703125 37.7979 0.0703125 36.4017V14.9966C0.0703125 13.6104 0.813616 12.3046 2.01897 11.6115L20.5513 0.903948C21.7266 0.241002 23.2835 0.241002 24.4487 0.903948L43.0011 11.6216C44.2065 12.3147 44.9498 13.6104 44.9498 15.0066V36.4118C44.9498 37.7979 44.2065 39.0937 43.0011 39.7968L24.4487 50.5044C23.856 50.8459 23.183 51.0267 22.5 51.0267ZM37.4766 29.9229C37.4766 25.9151 34.7645 24.8504 29.0692 24.097C23.3036 23.3336 22.721 22.9419 22.721 21.5959C22.721 20.481 23.2132 18.9944 27.4821 18.9944C31.2891 18.9944 32.6953 19.818 33.2779 22.3894C33.3281 22.6305 33.5491 22.8113 33.8002 22.8113H36.2109C36.3616 22.8113 36.5022 22.751 36.6027 22.6406C36.7031 22.5301 36.7533 22.3794 36.7433 22.2287C36.3716 17.799 33.4286 15.7399 27.4821 15.7399C22.1886 15.7399 19.0346 17.9698 19.0346 21.7164C19.0346 25.7745 22.1786 26.8995 27.2511 27.4017C33.3281 27.9943 33.8002 28.8883 33.8002 30.0836C33.8002 32.1528 32.1328 33.0368 28.2254 33.0368C23.3136 33.0368 22.2388 31.8013 21.8772 29.3604C21.8371 29.0993 21.6161 28.9084 21.3449 28.9084H18.9442C18.6429 28.9084 18.4118 29.1495 18.4118 29.4408C18.4118 32.5647 20.1094 36.2912 28.2355 36.2912C34.1016 36.2812 37.4766 33.9609 37.4766 29.9229Z" fill="url(#paint0_linear_1_182)"/>
</g>
<defs>
<linearGradient id="paint0_linear_1_182" x1="18.7281" y1="40.4318" x2="-16.638" y2="29.6938" gradientUnits="userSpaceOnUse">
<stop stop-color="#1850E1"/>
<stop offset="1" stop-color="#7EA2FF"/>
<stop offset="1" stop-color="#C5D5FF"/>
</linearGradient>
<clipPath id="clip0_1_182">
<rect width="45" height="51.4286" fill="white"/>
</clipPath>
</defs>
</svg>
