<svg width="45" height="45" viewBox="0 0 45 45" fill="none" xmlns="http://www.w3.org/2000/svg">
<path d="M20.8182 19.5713C20.2446 19.9024 19.7822 20.3962 19.4893 20.9902C19.1964 21.5842 19.0862 22.2517 19.1726 22.9083C19.259 23.5649 19.5382 24.1812 19.9749 24.6791C20.4115 25.1771 20.986 25.5344 21.6257 25.7058C22.2654 25.8773 22.9416 25.8552 23.5688 25.6424C24.1959 25.4296 24.7459 25.0356 25.1492 24.5102C25.5524 23.9849 25.7908 23.3517 25.8343 22.6909C25.8777 22.03 25.7242 21.3711 25.3932 20.7975C25.1733 20.4165 24.8806 20.0826 24.5317 19.8148C24.1828 19.547 23.7845 19.3506 23.3597 19.2367C22.9348 19.1228 22.4917 19.0937 22.0557 19.1512C21.6196 19.2086 21.1991 19.3513 20.8182 19.5713ZM35.8276 23.205C35.6075 22.9538 35.3757 22.7019 35.1319 22.4494C35.3019 22.2694 35.4669 22.09 35.6269 21.9113C38.6363 18.5288 39.9076 15.135 38.73 13.0969C37.6013 11.1413 34.2432 10.5581 30.0376 11.3756C29.6238 11.4569 29.2119 11.5481 28.8019 11.6494C28.7232 11.3794 28.6401 11.1106 28.5525 10.8431C27.1257 6.54375 24.8213 3.74813 22.4663 3.75C20.2088 3.75 18.0263 6.36938 16.6332 10.4213C16.4957 10.8213 16.3688 11.2238 16.2526 11.6288C15.9788 11.5613 15.7038 11.4988 15.4276 11.4413C10.9913 10.5319 7.41943 11.1319 6.2438 13.1738C5.11693 15.1294 6.29443 18.33 9.1088 21.5588C9.3888 21.8775 9.6763 22.19 9.9713 22.4963C9.62255 22.8525 9.29443 23.2106 8.98693 23.5669C6.24005 26.7506 5.13005 29.8969 6.25505 31.845C7.41755 33.8588 10.9388 34.5169 15.2269 33.6731C15.5744 33.6044 15.9201 33.5269 16.2638 33.4406C16.3888 33.8794 16.5269 34.315 16.6782 34.7475C18.0657 38.7169 20.2351 41.25 22.4851 41.25C24.8101 41.25 27.1388 38.5256 28.5507 34.3894C28.6632 34.0631 28.7663 33.7238 28.8675 33.375C29.3113 33.485 29.7582 33.5825 30.2082 33.6675C34.3388 34.4494 37.6182 33.8363 38.7413 31.8863C39.9019 29.8706 38.7038 26.4919 35.8276 23.205ZM7.6313 13.9725C8.35505 12.7163 11.2744 12.225 15.1051 13.0125C15.35 13.0625 15.5994 13.1188 15.8532 13.1813C15.4787 14.8357 15.2144 16.5131 15.0619 18.2025C13.6805 19.1739 12.3634 20.2336 11.1188 21.375C10.8451 21.0913 10.5782 20.8006 10.3182 20.5031C7.90505 17.7394 6.95255 15.1519 7.6313 13.9725ZM14.9194 24.7125C13.9632 23.9869 13.0726 23.2444 12.2644 22.4981C13.0707 21.7556 13.9613 21.0169 14.9176 20.2931C14.8826 21.0294 14.8657 21.7663 14.8669 22.5038C14.8669 23.2413 14.8844 23.9775 14.9194 24.7125ZM14.9194 32.1C13.2942 32.462 11.6163 32.5217 9.96943 32.2763C9.51795 32.2409 9.07852 32.1134 8.67829 31.9015C8.27806 31.6896 7.92555 31.3979 7.64255 31.0444C6.95818 29.8631 7.85068 27.3356 10.2001 24.6131C10.4951 24.2719 10.8001 23.9394 11.1151 23.6156C12.3602 24.7641 13.68 25.8289 15.0657 26.8031C15.2197 28.5139 15.4865 30.2126 15.8644 31.8881C15.5519 31.9669 15.2363 32.0381 14.9176 32.1019M28.2301 17.0288C27.6013 16.6325 26.9651 16.2494 26.3213 15.8794C25.6863 15.5144 25.0444 15.1625 24.3957 14.8238C25.4622 14.3733 26.5504 13.9759 27.6563 13.6331C27.9045 14.7546 28.096 15.8879 28.2301 17.0288ZM18.1501 10.9406C19.3426 7.47188 21.1088 5.35313 22.4701 5.35313C23.9194 5.35125 25.8019 7.63688 27.0338 11.3475C27.1138 11.59 27.1888 11.8338 27.2588 12.0788C25.6417 12.5799 24.0595 13.1875 22.5226 13.8975C20.9907 13.1788 19.4121 12.5643 17.7976 12.0581C17.9063 11.6831 18.0238 11.3106 18.1501 10.9406ZM17.4001 13.6106C18.5008 13.9571 19.5835 14.3589 20.6438 14.8144C19.3288 15.4919 18.0488 16.23 16.8038 17.0288C16.9538 15.8325 17.1544 14.6869 17.4001 13.6106ZM16.8057 27.9731C17.4269 28.3719 18.0576 28.755 18.6976 29.1225C19.3501 29.4975 20.0107 29.8575 20.6794 30.2025C19.6115 30.6738 18.52 31.09 17.4094 31.4494C17.1514 30.3018 16.9499 29.1423 16.8057 27.975M27.0357 33.8738C26.5368 35.4619 25.75 36.9448 24.7144 38.2481C24.4587 38.6218 24.1292 38.939 23.746 39.1802C23.3629 39.4215 22.9344 39.5816 22.4869 39.6506C21.1201 39.6506 19.3782 37.6162 18.1932 34.2206C18.0532 33.8194 17.9244 33.4144 17.8069 33.0056C19.4292 32.4823 21.0141 31.8496 22.5507 31.1119C24.1007 31.8276 25.696 32.4408 27.3263 32.9475C27.2363 33.2588 27.1394 33.5675 27.0357 33.8738ZM27.7144 31.3913C26.5942 31.0414 25.4916 30.6372 24.4107 30.18C25.0469 29.8463 25.6875 29.4931 26.3326 29.1206C26.9951 28.7381 27.6401 28.3463 28.2676 27.945C28.1422 29.1025 27.9576 30.2527 27.7144 31.3913ZM28.5525 22.4981C28.5525 23.6369 28.5169 24.7744 28.4457 25.9106C27.5213 26.5369 26.5463 27.1481 25.5319 27.7331C24.5194 28.3163 23.5201 28.8525 22.5376 29.3381C21.5038 28.8431 20.4901 28.3094 19.4963 27.7369C18.5088 27.1681 17.5438 26.5625 16.6013 25.92C16.5138 24.7825 16.4701 23.6438 16.4701 22.5038C16.4701 21.365 16.5126 20.2269 16.5976 19.0894C18.4824 17.8025 20.4618 16.6599 22.5188 15.6713C23.5388 16.1675 24.5407 16.6994 25.5244 17.2669C26.5119 17.8344 27.4807 18.4338 28.4307 19.065C28.5119 20.2075 28.5525 21.3519 28.5525 22.4981ZM30.3451 12.9488C33.9488 12.2494 36.6638 12.72 37.3444 13.8994C38.07 15.1556 37.0313 17.9269 34.4307 20.8481C34.2869 21.0094 34.1382 21.1713 33.9844 21.3338C32.7178 20.1887 31.3747 19.1313 29.9644 18.1687C29.8224 16.498 29.5687 14.8387 29.2051 13.2019C29.5926 13.1069 29.9726 13.0225 30.3451 12.9488ZM30.1013 20.2331C31.053 20.9277 31.9679 21.6712 32.8426 22.4606C31.972 23.2627 31.0601 24.0187 30.1107 24.7256C30.1394 23.9831 30.1538 23.2406 30.1538 22.4981C30.1538 21.7431 30.1363 20.9881 30.1013 20.2331ZM37.3557 31.0875C36.6732 32.2706 34.0407 32.7638 30.5063 32.0963C30.1013 32.02 29.6863 31.9288 29.2613 31.8225C29.6162 30.1645 29.8586 28.4844 29.9869 26.7938C31.3947 25.815 32.7335 24.7406 33.9938 23.5781C34.215 23.8069 34.4251 24.0344 34.6238 24.2606C35.7508 25.4861 36.6425 26.9085 37.2544 28.4569C37.4503 28.8651 37.5603 29.3092 37.5777 29.7617C37.5951 30.2142 37.5196 30.6654 37.3557 31.0875Z" fill="url(#paint0_linear_1_178)"/>
<defs>
<linearGradient id="paint0_linear_1_178" x1="19.689" y1="33.4012" x2="-6.58452" y2="25.3968" gradientUnits="userSpaceOnUse">
<stop stop-color="#1850E1"/>
<stop offset="1" stop-color="#7EA2FF"/>
<stop offset="1" stop-color="#C5D5FF"/>
</linearGradient>
</defs>
</svg>
