<svg width="45" height="45" viewBox="0 0 45 45" fill="none" xmlns="http://www.w3.org/2000/svg">
<g clip-path="url(#clip0_1_191)">
<path d="M21.2231 31.1428C21.1809 31.2187 21.202 31.1849 21.2231 31.1428V31.1428ZM38.7394 25.0256C37.3247 25.0256 35.9297 25.349 34.6612 25.9748C34.2464 25.1381 33.8175 24.4068 33.7472 23.8584C33.6628 23.2185 33.5714 22.8389 33.6698 22.0795C33.7683 21.3201 34.2112 20.2443 34.2042 20.167C34.1972 20.0896 34.1058 19.7029 33.1987 19.6959C32.2917 19.6889 31.5112 19.8717 31.4198 20.1107C31.2593 20.5475 31.1347 20.9967 31.0472 21.4537C30.8855 22.2764 29.2345 25.2154 28.2994 26.7482C27.99 26.1506 27.7298 25.6232 27.6736 25.2014C27.5892 24.5615 27.4978 24.1818 27.5962 23.4224C27.6947 22.6631 28.1376 21.5873 28.1306 21.5099C28.1236 21.4326 28.0322 21.0459 27.1266 21.0389C26.2209 21.0318 25.4391 21.2146 25.3476 21.4537C25.2562 21.6928 25.1578 22.2553 24.975 22.7967C24.7922 23.3381 22.5914 28.2318 22.0162 29.5045C21.7209 30.1514 21.4678 30.6717 21.285 31.0232C21.2569 31.0795 21.2358 31.1146 21.2217 31.1428C21.2428 31.1076 21.2569 31.0724 21.2569 31.0865C21.1022 31.3889 21.0108 31.5576 21.0108 31.5576V31.5646C20.8912 31.7896 20.7576 31.9935 20.6944 31.9935C20.6522 31.9935 20.5608 31.4029 20.7155 30.5943C21.0459 28.8928 21.8264 26.249 21.8194 26.1576C21.8123 26.1084 21.967 25.6514 21.3061 25.4053C20.6662 25.1732 20.4342 25.5599 20.378 25.5599C20.3217 25.5599 20.2795 25.7006 20.2795 25.7006C20.2795 25.7006 20.9897 22.7193 18.9155 22.7193C17.6217 22.7193 15.8217 24.1396 14.9372 25.4263C14.3817 25.7287 13.1794 26.3826 11.9137 27.0787L10.4583 27.8803C10.4231 27.8451 10.395 27.8099 10.3598 27.7748C7.84265 25.0889 3.1964 23.1904 3.39327 19.5834C3.46359 18.2685 3.92062 14.8162 12.3286 10.6256C19.2192 7.19432 24.7275 8.13651 25.6767 10.2318C27.0408 13.2201 22.7306 18.7818 15.5756 19.5834C12.8475 19.8857 11.4145 18.831 11.0559 18.4373C10.6833 18.0224 10.627 18.0014 10.4864 18.0787C10.2544 18.2053 10.402 18.5709 10.4864 18.7889C10.6973 19.3443 11.5762 20.3287 13.0739 20.8209C14.3887 21.2498 17.5866 21.4889 21.4523 19.9912C25.7962 18.3178 29.1783 13.656 28.1855 9.7537C27.1758 5.78807 20.6001 4.48729 14.3831 6.6951C10.6776 8.00995 6.67124 10.0771 3.78984 12.7701C0.365618 15.9764 -0.181413 18.7678 0.0435867 19.9349C0.845149 24.0764 6.55312 26.7764 8.83687 28.7732L8.52046 28.949C7.37437 29.5185 3.02343 31.7967 1.93359 34.2014C0.703118 36.9295 2.13749 38.8842 3.07827 39.1514C6.01734 39.967 9.02531 38.4974 10.6425 36.0857C12.2597 33.674 12.0628 30.524 11.3175 29.0896C11.3105 29.0685 11.2964 29.0545 11.2894 29.0334C12.1331 28.5336 12.9839 28.0461 13.8417 27.5709C13.5605 28.3303 13.3566 29.2443 13.2511 30.5662C13.1245 32.1131 13.7644 34.117 14.5941 34.9045C14.9597 35.249 15.4012 35.256 15.6769 35.256C16.6472 35.256 17.0831 34.4545 17.5683 33.4982C18.1659 32.331 18.6933 30.974 18.6933 30.974C18.6933 30.974 18.0323 34.6443 19.8394 34.6443C20.5003 34.6443 21.1612 33.7935 21.4566 33.3576V33.3646C21.4566 33.3646 21.4706 33.3365 21.5058 33.2803C21.5761 33.1748 21.6112 33.1115 21.6112 33.1115V33.0904C21.8784 32.6334 22.462 31.5857 23.3409 29.856C24.48 27.6201 25.5684 24.8287 25.5684 24.8287C25.6739 25.4418 25.8201 26.0479 26.0044 26.6428C26.2012 27.3107 26.6161 28.042 26.9466 28.7521C26.6794 29.1178 26.5176 29.3287 26.5176 29.3287C26.5176 29.3343 26.5205 29.3385 26.5247 29.3428C26.3137 29.624 26.0747 29.9264 25.8286 30.2217C24.93 31.2904 23.8598 32.5139 23.7192 32.8654C23.5505 33.2803 23.5926 33.5896 23.9161 33.8287C24.1551 34.0115 24.577 34.0396 25.02 34.0045C25.8286 33.9482 26.3981 33.7514 26.6723 33.6248C27.1781 33.4436 27.6562 33.1927 28.0926 32.8795C28.9716 32.2326 29.5059 31.3045 29.4567 30.081C29.4286 29.406 29.2106 28.731 28.9434 28.0982C29.0208 27.9857 29.1051 27.8662 29.1825 27.7467C30.0975 26.3814 30.9219 24.9576 31.6505 23.4843C31.7559 24.0974 31.9008 24.7035 32.0864 25.2984C32.2551 25.8679 32.5856 26.4937 32.888 27.1054C31.5801 28.1671 30.7716 29.3976 30.4917 30.2062C29.9714 31.7039 30.3792 32.3789 31.1456 32.5335C31.4901 32.6039 31.9823 32.4421 32.348 32.2874C32.8908 32.106 33.4026 31.8431 33.8653 31.507C34.7442 30.8601 35.595 29.9531 35.5373 28.7226C35.5162 28.1671 35.3616 27.6117 35.1576 27.0773C36.2616 26.6132 37.6959 26.3601 39.5241 26.571C43.4391 27.0281 44.2055 29.4749 44.0578 30.4945C43.9101 31.514 43.0875 32.0835 42.8133 32.2523C42.5391 32.421 42.4547 32.4843 42.4758 32.6109C42.5109 32.7937 42.6375 32.7867 42.8695 32.7445C43.193 32.6882 44.9226 31.9148 45 30.0234C45.1125 27.6328 42.8133 25.0031 38.7422 25.0242L38.7394 25.0256ZM8.56265 35.1998C7.2689 36.6131 5.45624 37.1474 4.67577 36.6974C3.83906 36.2109 4.16952 34.131 5.76421 32.6249C6.73452 31.7109 7.98609 30.8671 8.81577 30.3468C9.00562 30.2343 9.27984 30.0656 9.61734 29.8617C9.64476 29.8441 9.67291 29.8277 9.70171 29.8124C9.76499 29.7703 9.83531 29.7351 9.90562 29.6929C10.4878 31.8304 9.92671 33.7162 8.56265 35.1998ZM18.0098 28.7732C17.5598 29.8771 16.612 32.6896 16.0341 32.542C15.5419 32.4154 15.2395 30.2709 15.9356 28.1615C16.2872 27.0998 17.0325 25.8342 17.4755 25.342C18.1856 24.5474 18.9661 24.2943 19.1489 24.6107C19.395 25.0256 18.2911 28.0842 18.0098 28.7732ZM25.8145 32.4998C25.6247 32.5982 25.4489 32.6615 25.3645 32.6123C25.3012 32.5771 25.4419 32.4435 25.4419 32.4435C25.4419 32.4435 26.4192 31.3959 26.8059 30.9178C27.0309 30.6365 27.2911 30.306 27.5723 29.9404C27.5723 29.9756 27.5794 30.0107 27.5794 30.0529C27.5709 31.3115 26.363 32.1623 25.8145 32.4998ZM31.8333 31.1287C31.6926 31.0303 31.7137 30.6998 32.1848 29.6732C32.3676 29.2724 32.7895 28.5974 33.5208 27.9506C33.6037 28.1953 33.6487 28.4512 33.6544 28.7099C33.6473 30.292 32.5153 30.8826 31.8333 31.1287Z" fill="url(#paint0_linear_1_191)"/>
</g>
<defs>
<linearGradient id="paint0_linear_1_191" x1="18.7092" y1="32.3135" x2="-13.342" y2="17.6782" gradientUnits="userSpaceOnUse">
<stop stop-color="#1850E1"/>
<stop offset="1" stop-color="#7EA2FF"/>
<stop offset="1" stop-color="#C5D5FF"/>
</linearGradient>
<clipPath id="clip0_1_191">
<rect width="45" height="45" fill="white"/>
</clipPath>
</defs>
</svg>
