<svg width="278" height="88" viewBox="0 0 278 88" fill="none" xmlns="http://www.w3.org/2000/svg">
<path d="M5.77 88V60.16C5.77 48.72 10.77 42 20.77 40L41.77 35.8C42.73 35.56 43.21 34.92 43.21 33.88V25.36C43.21 24.48 42.77 24.04 41.89 24.04H8.17V12.4L17.53 5.19999H42.97C57.05 5.19999 64.09 12.24 64.09 26.32V34C64.09 45.44 59.09 52.16 49.09 54.16L28.09 58.36C27.13 58.6 26.65 59.24 26.65 60.28V69.16H64.09V88H5.77ZM75.145 66.88V26.32C75.145 12.24 82.185 5.19999 96.265 5.19999H112.345C126.425 5.19999 133.465 12.24 133.465 26.32V66.88C133.465 80.96 126.425 88 112.345 88H96.265C82.185 88 75.145 80.96 75.145 66.88ZM96.025 67.84C96.025 68.72 96.465 69.16 97.345 69.16H111.265C112.145 69.16 112.585 68.72 112.585 67.84V25.36C112.585 24.48 112.145 24.04 111.265 24.04H97.345C96.465 24.04 96.025 24.48 96.025 25.36V67.84ZM147.88 88V69.16H165.16V24.04H150.28V12.4L159.64 5.19999H186.04V69.16H201.4V88H147.88ZM213.895 37V26.32C213.895 12.24 220.935 5.19999 235.015 5.19999H251.095C265.175 5.19999 272.215 12.24 272.215 26.32V62.68C272.215 79.56 263.775 88 246.895 88H226.855L217.495 80.8V69.16H247.375C250.015 69.16 251.335 67.84 251.335 65.2V58H235.015C220.935 58 213.895 51 213.895 37ZM234.775 37.84C234.775 38.72 235.215 39.16 236.095 39.16H251.335V25.36C251.335 24.48 250.895 24.04 250.015 24.04H236.095C235.215 24.04 234.775 24.48 234.775 25.36V37.84Z" fill="url(#paint0_linear_54_6)"/>
<defs>
<linearGradient id="paint0_linear_54_6" x1="-174.5" y1="36.5" x2="297.5" y2="35" gradientUnits="userSpaceOnUse">
<stop stop-color="white"/>
<stop offset="1" stop-color="white" stop-opacity="0"/>
</linearGradient>
</defs>
</svg>
