<svg width="278" height="89" viewBox="0 0 278 89" fill="none" xmlns="http://www.w3.org/2000/svg">
<path d="M5.77 89V61.16C5.77 49.72 10.77 43 20.77 41L41.77 36.8C42.73 36.56 43.21 35.92 43.21 34.88V26.36C43.21 25.48 42.77 25.04 41.89 25.04H8.17V13.4L17.53 6.19999H42.97C57.05 6.19999 64.09 13.24 64.09 27.32V35C64.09 46.44 59.09 53.16 49.09 55.16L28.09 59.36C27.13 59.6 26.65 60.24 26.65 61.28V70.16H64.09V89H5.77ZM75.145 67.88V27.32C75.145 13.24 82.185 6.19999 96.265 6.19999H112.345C126.425 6.19999 133.465 13.24 133.465 27.32V67.88C133.465 81.96 126.425 89 112.345 89H96.265C82.185 89 75.145 81.96 75.145 67.88ZM96.025 68.84C96.025 69.72 96.465 70.16 97.345 70.16H111.265C112.145 70.16 112.585 69.72 112.585 68.84V26.36C112.585 25.48 112.145 25.04 111.265 25.04H97.345C96.465 25.04 96.025 25.48 96.025 26.36V68.84ZM144.52 89V61.16C144.52 49.72 149.52 43 159.52 41L180.52 36.8C181.48 36.56 181.96 35.92 181.96 34.88V26.36C181.96 25.48 181.52 25.04 180.64 25.04H146.92V13.4L156.28 6.19999H181.72C195.8 6.19999 202.84 13.24 202.84 27.32V35C202.84 46.44 197.84 53.16 187.84 55.16L166.84 59.36C165.88 59.6 165.4 60.24 165.4 61.28V70.16H202.84V89H144.52ZM217.255 89V70.16H234.535V25.04H219.655V13.4L229.015 6.19999H255.415V70.16H270.775V89H217.255Z" fill="url(#paint0_linear_54_5)"/>
<defs>
<linearGradient id="paint0_linear_54_5" x1="-174.5" y1="37.5" x2="297.5" y2="36" gradientUnits="userSpaceOnUse">
<stop stop-color="white"/>
<stop offset="1" stop-color="white" stop-opacity="0"/>
</linearGradient>
</defs>
</svg>
