<svg width="278" height="84" viewBox="0 0 278 84" fill="none" xmlns="http://www.w3.org/2000/svg">
<path d="M5.77 84V56.16C5.77 44.72 10.77 38 20.77 36L41.77 31.8C42.73 31.56 43.21 30.92 43.21 29.88V21.36C43.21 20.48 42.77 20.04 41.89 20.04H8.17V8.39999L17.53 1.19999H42.97C57.05 1.19999 64.09 8.24 64.09 22.32V30C64.09 41.44 59.09 48.16 49.09 50.16L28.09 54.36C27.13 54.6 26.65 55.24 26.65 56.28V65.16H64.09V84H5.77ZM75.145 62.88V22.32C75.145 8.24 82.185 1.19999 96.265 1.19999H112.345C126.425 1.19999 133.465 8.24 133.465 22.32V62.88C133.465 76.96 126.425 84 112.345 84H96.265C82.185 84 75.145 76.96 75.145 62.88ZM96.025 63.84C96.025 64.72 96.465 65.16 97.345 65.16H111.265C112.145 65.16 112.585 64.72 112.585 63.84V21.36C112.585 20.48 112.145 20.04 111.265 20.04H97.345C96.465 20.04 96.025 20.48 96.025 21.36V63.84ZM144.52 84V56.16C144.52 44.72 149.52 38 159.52 36L180.52 31.8C181.48 31.56 181.96 30.92 181.96 29.88V21.36C181.96 20.48 181.52 20.04 180.64 20.04H146.92V8.39999L156.28 1.19999H181.72C195.8 1.19999 202.84 8.24 202.84 22.32V30C202.84 41.44 197.84 48.16 187.84 50.16L166.84 54.36C165.88 54.6 165.4 55.24 165.4 56.28V65.16H202.84V84H144.52ZM215.095 76.8V65.16H250.015C250.895 65.16 251.335 64.72 251.335 63.84V52.56C251.335 51.68 250.895 51.24 250.015 51.24H223.975V32.4H250.015C250.895 32.4 251.335 31.96 251.335 31.08V21.36C251.335 20.48 250.895 20.04 250.015 20.04H216.295V8.39999L225.655 1.19999H251.095C265.175 1.19999 272.215 8.24 272.215 22.32V29.4C272.215 32.6 271.215 35.2 269.215 37.2L265.015 41.4L269.215 45.6C271.215 47.6 272.215 50.2 272.215 53.4V62.88C272.215 76.96 265.175 84 251.095 84H224.455L215.095 76.8Z" fill="url(#paint0_linear_54_4)"/>
<defs>
<linearGradient id="paint0_linear_54_4" x1="-174.5" y1="32.5" x2="297.5" y2="31" gradientUnits="userSpaceOnUse">
<stop stop-color="white"/>
<stop offset="1" stop-color="white" stop-opacity="0"/>
</linearGradient>
</defs>
</svg>
