<svg width="48" height="48" viewBox="0 0 48 48" fill="none" xmlns="http://www.w3.org/2000/svg">
<path d="M5.47238 23.9997L5.82593 23.6461L16.9792 12.4929C17.2846 12.1616 17.4508 11.7252 17.443 11.2744C17.4352 10.8212 17.2521 10.3886 16.9321 10.0674C16.6109 9.74725 16.1782 9.56399 15.7247 9.55615C15.274 9.54837 14.8376 9.71455 14.5063 10.02L1.76326 22.763L5.47238 23.9997ZM5.47238 23.9997L5.82593 24.3532M5.47238 23.9997L5.82593 24.3532M5.82593 24.3532L16.9859 35.5133L16.9925 35.5198M5.82593 24.3532L16.9925 35.5198M16.9925 35.5198L16.9993 35.5261M16.9925 35.5198L16.9993 35.5261M16.9993 35.5261C17.2295 35.7399 17.3979 36.0119 17.4865 36.3134C17.5752 36.6148 17.5809 36.9346 17.5031 37.2391C17.4252 37.5435 17.2667 37.8213 17.0442 38.0432C16.8217 38.2651 16.5435 38.4229 16.2389 38.5L16.2373 38.5004M16.9993 35.5261L16.2373 38.5004M16.2373 38.5004C15.9332 38.5783 15.6138 38.5729 15.3125 38.4846C15.0112 38.3964 14.7393 38.2286 14.5253 37.9989L14.5193 37.9924M16.2373 38.5004L14.5193 37.9924M14.5193 37.9924L14.513 37.9861M14.5193 37.9924L14.513 37.9861M14.513 37.9861L1.76326 25.2364M14.513 37.9861L1.76326 25.2364M1.76326 25.2364L1.76304 25.2361C1.43546 24.908 1.25146 24.4633 1.25146 23.9997C1.25146 23.536 1.43546 23.0914 1.76304 22.7632L1.76326 25.2364ZM33.4736 10.0005L33.4797 10.007L33.4859 10.0132L46.2357 22.763C46.5634 23.0912 46.7475 23.5359 46.7475 23.9997C46.7475 24.4634 46.5634 24.9082 46.2357 25.2364L33.4859 37.9861L33.4794 37.9927L33.4731 37.9995C33.2593 38.2297 32.9873 38.3981 32.6858 38.4867C32.3844 38.5754 32.0646 38.5811 31.7601 38.5033C31.4557 38.4254 31.1779 38.2669 30.956 38.0444C30.7341 37.822 30.5763 37.5437 30.4992 37.2391L30.4988 37.2376C30.4209 36.9335 30.4263 36.614 30.5146 36.3127C30.6028 36.0114 30.7706 35.7395 31.0003 35.5255L31.0068 35.5195L31.013 35.5133L42.173 24.3532L42.5266 23.9997L42.173 23.6461L31.013 12.4861L31.0065 12.4796L30.9997 12.4733C30.7694 12.2595 30.6011 11.9875 30.5124 11.686C30.4238 11.3846 30.4181 11.0648 30.4959 10.7603C30.5737 10.4559 30.7323 10.1781 30.9547 9.95618C31.1772 9.73427 31.4554 9.57648 31.7601 9.49943L31.7616 9.49904C32.0657 9.4211 32.3852 9.42653 32.6865 9.51478L32.827 9.03494L32.6865 9.51478C32.9877 9.60303 33.2597 9.77082 33.4736 10.0005Z" stroke="url(#paint0_linear_1_165)"/>
<defs>
<linearGradient id="paint0_linear_1_165" x1="20.0813" y1="32.7549" x2="-11.1924" y2="16.2183" gradientUnits="userSpaceOnUse">
<stop stop-color="#1850E1"/>
<stop offset="1" stop-color="#7EA2FF"/>
<stop offset="1" stop-color="#C5D5FF"/>
</linearGradient>
</defs>
</svg>
