<svg width="59" height="59" viewBox="0 0 59 59" fill="none" xmlns="http://www.w3.org/2000/svg">
<path d="M31.8661 18.663L32.5206 18.6267C33.1749 18.5903 33.8004 18.5357 34.263 18.4901C34.4941 18.4672 34.6839 18.4467 34.8157 18.432C34.8816 18.4246 34.933 18.4186 34.9676 18.4146L35.0069 18.4099L35.0167 18.4087L35.0184 18.4085C35.1826 18.388 35.2713 18.3197 35.3226 18.2504C35.3799 18.173 35.411 18.0651 35.4023 17.9499C35.3935 17.8347 35.3472 17.7393 35.2843 17.679C35.2294 17.6266 35.1359 17.5747 34.9664 17.5844L34.9597 17.5849L34.9288 17.5872L34.8101 17.5958C34.7068 17.6033 34.5569 17.6139 34.3699 17.6266C33.9959 17.652 33.4732 17.686 32.8779 17.7199C31.69 17.7876 30.2032 17.8559 29.0329 17.8559C27.9359 17.8559 26.4672 17.7876 25.2801 17.7199C24.6849 17.686 24.1577 17.6521 23.7792 17.6266C23.59 17.6139 23.4378 17.6033 23.3329 17.5959L23.2122 17.5872L23.1807 17.5849L23.179 17.5848C23.0282 17.5801 22.9377 17.6306 22.8779 17.6918C22.8088 17.7625 22.7589 17.8723 22.7496 17.9981C22.7403 18.124 22.7741 18.2312 22.8266 18.3003C22.871 18.3585 22.9503 18.4201 23.1143 18.4302L23.1314 18.4312L31.8661 18.663ZM31.8661 18.663L32.0741 19.2846L40.0392 43.0813L40.5394 44.5757L40.9922 43.0663L43.2042 35.693C43.2043 35.6927 43.2044 35.6924 43.2045 35.6921C43.3018 35.3718 43.3975 35.0599 43.4908 34.7559C44.2798 32.1844 44.8975 30.1713 44.8975 28.3938C44.8975 25.5321 43.8606 23.5459 43.0133 22.0507L43.0095 22.044L43.0055 22.0374C42.9063 21.8742 42.8084 21.7146 42.7123 21.558C42.2628 20.8255 41.8529 20.1573 41.5329 19.488C41.1491 18.6853 40.915 17.9192 40.915 17.1101C40.915 15.2966 42.2867 13.6767 44.127 13.6767C44.1398 13.6767 44.158 13.6784 44.2125 13.6852L44.2197 13.6861C44.2648 13.6917 44.341 13.7013 44.422 13.7013H45.7053L44.7603 12.8331C40.7378 9.13745 35.3819 6.89966 29.5 6.89966C21.6051 6.89966 14.6673 10.9484 10.5967 17.0794L10.1094 17.8134L10.9895 17.8553C11.5177 17.8805 12.0191 17.8805 12.4352 17.8805H12.4391C13.6095 17.8805 15.0962 17.8122 16.2841 17.7445C16.8794 17.7106 17.4022 17.6766 17.7762 17.6512C17.9632 17.6385 18.1131 17.6278 18.2163 17.6204L18.335 17.6118L18.3659 17.6095L18.3727 17.609L31.8661 18.663ZM9.78672 20.3311L9.36351 19.172L8.86047 20.2988C7.60354 23.1143 6.89954 26.2319 6.89954 29.5001C6.89954 38.451 12.1048 46.1682 19.6445 49.8376L20.7575 50.3792L20.333 49.2165L9.78672 20.3311ZM22.783 50.5281L22.613 51.0219L23.1138 51.1703C25.1495 51.7735 27.2869 52.1005 29.5 52.1005C32.139 52.1005 34.6555 51.648 36.9975 50.7918L37.5943 50.5736L37.242 50.045C37.2422 50.0453 37.2388 50.0401 37.2317 50.0265C37.2242 50.0123 37.2154 49.9943 37.2045 49.971C37.1995 49.9604 37.1932 49.9469 37.1862 49.9317C37.1722 49.9015 37.1552 49.8646 37.1389 49.8309L30.363 31.2463L29.8799 29.9211L29.4205 31.2548L22.783 50.5281ZM49.335 18.6649L48.4012 18.9754C48.4957 19.6365 48.5437 20.3746 48.5437 21.1663C48.5437 23.3348 48.1399 25.8043 46.9076 28.8971L46.9033 28.9077L46.8996 28.9185L40.1392 48.4377L39.6983 49.7107L40.8629 49.0336C45.954 46.0738 49.6884 41.2434 51.2709 35.5711C52.8533 29.8987 52.1587 23.8327 49.335 18.6649ZM5.41663 29.5001C5.41663 16.2308 16.2307 5.41675 29.5 5.41675C42.7692 5.41675 53.5833 16.2308 53.5833 29.5001C53.5833 42.7694 42.7692 53.5834 29.5 53.5834C16.2307 53.5834 5.41663 42.7694 5.41663 29.5001Z" stroke="url(#paint0_linear_1_167)"/>
<defs>
<linearGradient id="paint0_linear_1_167" x1="25.3567" y1="43.7927" x2="-12.5177" y2="30.8222" gradientUnits="userSpaceOnUse">
<stop stop-color="#1850E1"/>
<stop offset="1" stop-color="#7EA2FF"/>
<stop offset="1" stop-color="#C5D5FF"/>
</linearGradient>
</defs>
</svg>
